<svg width="95" height="105" viewBox="0 0 95 105" fill="none" xmlns="http://www.w3.org/2000/svg">
<g clip-path="url(#clip0_146_289)">
<path d="M73.9623 71.2415C73.7564 71.3499 73.1241 71.3231 73.0202 71.3253C72.4762 71.3207 71.9167 71.3404 71.3573 71.3602C70.2539 71.3753 69.1679 71.4702 68.0819 71.565C65.8945 71.779 63.7177 72.137 61.6243 72.6853C60.1041 73.0855 58.5858 73.5898 57.1247 74.1649C52.0286 76.2575 47.2332 79.0565 42.9292 82.4776C41.0453 83.9824 39.2275 85.5979 37.1786 86.8259C35.1297 88.054 32.7633 88.9764 30.3778 88.8583C32.1373 84.4976 35.1778 80.6465 39.0397 77.9712C42.9015 75.296 47.5517 73.7412 52.2441 73.6187C53.635 73.5815 55.0783 73.7835 56.4567 73.4983C57.5718 73.2507 58.654 72.9478 59.7429 72.5807C60.6415 72.2976 61.4274 71.9768 62.3366 71.8377C63.3895 71.6875 64.458 71.5129 65.4867 71.3472C66.8184 71.1351 68.1657 70.8987 69.5062 70.7264C70.3202 70.6293 71.136 70.6362 71.9364 70.6674C72.5289 70.703 73.4381 70.5639 73.9411 70.9537C74.1353 71.0777 74.0974 71.1906 74.0022 71.2326L73.9623 71.2415Z" fill="#F7EBE3" stroke="black" stroke-width="1.5" stroke-linecap="round" stroke-linejoin="round"/>
<path d="M70.19 72.2254C69.3395 71.2023 67.7184 71.3324 66.6035 70.7232C64.8506 69.7752 63.227 68.464 61.8492 67.0357C60.0636 65.1755 58.8716 62.9746 57.3784 60.9241C54.1454 56.46 51.5527 51.5821 49.6507 46.4254C48.8414 44.1604 48.1273 41.8534 47.0323 39.7145C45.9374 37.5756 44.4131 35.5738 42.3048 34.433C41.5019 39.0618 42.087 43.9258 43.9495 48.2345C45.0937 50.8848 46.7277 53.1966 48.6783 55.3336C49.6085 56.3389 50.4571 57.258 51.6224 58.0022C52.7878 58.7464 54.0813 59.5039 55.0445 60.5647C56.0979 61.7516 56.6705 63.317 57.416 64.7186C58.7488 67.1808 60.7703 69.2602 63.1719 70.6911C64.377 71.4265 65.7153 72.007 67.0896 72.3705C67.885 72.57 69.4857 72.6325 70.2143 72.2409L70.19 72.2254Z" fill="#F7EBE3" stroke="black" stroke-width="1.5" stroke-linecap="round" stroke-linejoin="round"/>
<path d="M39.3939 69.7647C41.4019 68.9219 43.6283 68.2186 45.7806 68.7019C47.2899 69.0146 48.7097 69.6814 50.0431 70.4301C51.2551 71.1013 52.371 71.3341 53.6588 71.7795C56.6608 72.8055 59.7094 73.7584 62.8971 74.0118C66.7657 74.323 70.6164 73.2173 74.1981 71.8371C73.928 71.9388 73.2987 68.5891 73.2794 68.4053C71.009 69.7661 68.8117 70.3166 66.2036 70.7076C64.0977 71.008 62.0453 71.1712 59.8813 70.9203C55.1687 70.3786 50.7529 68.1412 48.4815 63.777C47.0721 61.0602 47.445 58.282 47.2148 55.3243C47.1404 54.3169 47.2411 52.3932 46.6576 51.5406C47.0984 55.0785 45.8405 58.0114 44.129 61.0659C43.0998 62.9451 42.0239 64.8974 40.7033 66.5905C39.8045 67.7303 38.5308 68.4937 37.6475 69.6092C37.4921 69.8527 37.1101 70.3971 37.4258 70.5987C37.5957 70.7072 38.7032 70.0434 38.8936 69.9594C39.0286 69.9085 39.1792 69.8333 39.3142 69.7824L39.3939 69.7647Z" fill="#F7EBE3" stroke="black" stroke-width="1.5" stroke-linecap="round" stroke-linejoin="round"/>
<path d="M14.6752 54.6296C14.9019 56.5225 15.6706 58.316 16.4548 60.0851C17.5486 62.6003 18.6667 65.1311 20.2433 67.372C21.122 68.6187 22.155 69.9982 23.5437 70.7137C24.9324 71.4292 26.4505 71.7817 27.9025 72.0235C30.8464 72.4982 33.9206 72.2336 36.7407 71.1895C37.1856 71.0281 37.6062 70.8511 38.0269 70.6741C46.3542 66.8403 49.8545 53.171 44.4914 45.9412C42.6303 43.45 40.0618 41.6383 37.224 40.4087C35.9586 39.8747 35.0137 39.3741 33.6102 39.1633C32.1339 38.906 30.644 38.7772 29.1609 38.5841C25.9382 38.1713 21.8999 39.9454 19.402 41.9836C17.4403 43.6101 16.0794 47.0256 15.2986 49.372C14.7298 51.0654 14.4349 52.8651 14.6441 54.6783L14.6752 54.6296Z" fill="#F7EBE3" stroke="black" stroke-width="1.5" stroke-linecap="round" stroke-linejoin="round"/>
<path d="M43.9768 58.4668C45.2363 56.4947 44.3795 53.8224 43.0961 51.8716C41.8127 49.9208 40.0533 48.1801 39.3722 45.9284C39.116 45.045 39.0105 44.0864 38.6592 43.2451C38.0138 41.6332 36.5533 40.4948 35.1346 39.4516C39.4857 40.3452 43.2845 43.3882 45.3161 47.3251C47.2817 51.1512 47.4423 55.984 46.1656 60.0704C46.0518 60.409 45.9225 60.7721 45.6631 61.0177C44.916 61.706 43.5932 61.1012 43.7024 60.074C43.7482 59.5205 43.6328 58.8984 43.9525 58.4513L43.9768 58.4668Z" fill="#F7EBE3" stroke="black" stroke-width="1.5" stroke-linecap="round" stroke-linejoin="round"/>
<path d="M27.1332 65.8423C28.4857 64.5808 29.4478 62.9672 30.5887 61.5021C31.7295 60.0369 33.0956 58.647 34.8771 58.1052C37.5262 57.329 40.9321 58.5787 43.5778 58.9316C44.2431 59.0137 44.9415 59.1512 45.3978 59.614C45.8872 60.1322 45.9715 60.8031 45.8081 61.4871C45.6155 62.3238 45.0868 63.1516 44.733 63.9197C44.3413 64.8007 43.7883 65.613 43.1781 66.3544C41.9819 67.8528 40.5012 69.1009 38.8468 70.0324C35.5777 71.8865 31.633 72.6579 27.9373 72.1829C26.2619 71.9698 21.7154 71.3286 22.1134 69.0462C22.345 67.7202 23.5554 67.4306 24.688 67.2627C25.9643 67.0838 26.1646 66.6633 27.1002 65.7869L27.1332 65.8423Z" fill="#F7EBE3" stroke="black" stroke-width="1.5" stroke-linecap="round" stroke-linejoin="round"/>
</g>
<g clip-path="url(#clip1_146_289)">
<path d="M65.1206 49.7653C65.0427 49.6321 65.0417 49.2127 65.0372 49.1439C65.0241 48.7836 64.9945 48.4137 64.9648 48.0439C64.922 47.3137 64.827 46.5975 64.732 45.8812C64.5255 44.4391 64.2239 43.0084 63.7988 41.6385C63.4887 40.6438 63.1098 39.6534 62.6856 38.703C61.1489 35.3906 59.1534 32.2984 56.7604 29.55C55.7082 28.3472 54.5846 27.1914 53.7107 25.8711C52.8368 24.5509 52.1559 23.0113 52.1634 21.4283C55.1029 22.464 57.7431 24.3631 59.629 26.8409C61.5149 29.3187 62.6823 32.3517 62.9026 35.4551C62.9684 36.375 62.8775 37.3367 63.1072 38.2409C63.3042 38.9719 63.5369 39.6795 63.8123 40.3897C64.0264 40.9762 64.262 41.4871 64.3812 42.085C64.5118 42.7778 64.6591 43.4801 64.7993 44.1563C64.9792 45.0318 65.1757 45.9169 65.3295 46.7994C65.418 47.3355 65.4376 47.8759 65.4407 48.4068C65.4346 48.8002 65.5538 49.3981 65.3106 49.7427C65.2342 49.875 65.1583 49.8532 65.1277 49.7914L65.1206 49.7653Z" fill="#F7EBE3" stroke="black" stroke-width="1.5" stroke-linecap="round" stroke-linejoin="round"/>
<path d="M64.3577 47.2963C65.0099 46.7028 64.8757 45.6332 65.246 44.8769C65.8217 43.6881 66.6418 42.5742 67.5467 41.6195C68.7255 40.382 70.1475 39.5275 71.4609 38.478C74.3209 36.2049 77.474 34.3435 80.832 32.9312C82.3078 32.3281 83.8142 31.7869 85.198 30.9985C86.5818 30.21 87.8621 29.1414 88.555 27.7115C85.4662 27.3172 82.2629 27.8488 79.4651 29.2098C77.7441 30.046 76.2618 31.1965 74.9047 32.5515C74.2666 33.1972 73.6832 33.7864 73.225 34.58C72.7667 35.3737 72.3035 36.2527 71.6297 36.9219C70.875 37.6547 69.8555 38.0802 68.9495 38.6154C67.3587 39.5709 66.0417 40.9711 65.1655 42.6037C64.7143 43.4235 64.3696 44.3269 64.1696 45.2476C64.0611 45.7802 64.0672 46.842 64.3481 47.3128L64.3577 47.2963Z" fill="#F7EBE3" stroke="black" stroke-width="1.5" stroke-linecap="round" stroke-linejoin="round"/>
<path d="M65.0738 26.8316C65.6914 28.1361 66.2231 29.5895 65.9668 31.029C65.8046 32.0376 65.4052 32.9975 64.9489 33.9026C64.5405 34.725 64.4194 35.4709 64.1627 36.3368C63.5723 38.3549 63.0317 40.4018 62.9585 42.5201C62.8671 45.0909 63.7134 47.6078 64.7336 49.9385C64.6582 49.7627 66.8575 49.2467 66.9786 49.2284C66.0103 47.7654 65.5806 46.3268 65.2444 44.6115C64.983 43.226 64.8141 41.8718 64.9161 40.4315C65.135 37.295 66.4856 34.3048 69.3079 32.6714C71.0651 31.6575 72.9157 31.8221 74.8674 31.582C75.5322 31.5028 76.809 31.5125 77.3562 31.1008C75.0267 31.4976 73.0473 30.7517 70.974 29.709C69.6992 29.0832 68.3746 28.4287 67.2144 27.6045C66.433 27.0431 65.8898 26.2224 65.125 25.6706C64.9591 25.5749 64.5873 25.3381 64.4632 25.5531C64.3964 25.6688 64.8687 26.3825 64.93 26.5061C64.9677 26.594 65.022 26.6914 65.0597 26.7793L65.0738 26.8316Z" fill="#F7EBE3" stroke="black" stroke-width="1.5" stroke-linecap="round" stroke-linejoin="round"/>
<path d="M74.3625 10.0154C73.1158 10.2216 71.9511 10.7838 70.8029 11.3555C69.1699 12.1544 67.5273 12.9697 66.0903 14.0802C65.2908 14.6989 64.408 15.4238 63.9754 16.3646C63.5428 17.3053 63.3544 18.321 63.2374 19.2896C63.0103 21.2529 63.2767 23.2807 64.0516 25.117C64.1718 25.4069 64.3014 25.6801 64.4311 25.9534C67.2166 31.3536 76.3714 33.2661 80.9996 29.5005C82.594 28.1943 83.7174 26.4398 84.4475 24.5244C84.7635 23.6706 85.067 23.0301 85.1649 22.0946C85.2915 21.1094 85.3326 20.119 85.4165 19.1313C85.5943 16.9851 84.2998 14.3638 82.8762 12.7702C81.741 11.5196 79.4391 10.7197 77.8623 10.2723C76.7242 9.9459 75.5237 9.80399 74.3293 9.99627L74.3625 10.0154Z" fill="#F7EBE3" stroke="black" stroke-width="1.5" stroke-linecap="round" stroke-linejoin="round"/>
<path d="M72.6902 29.5315C74.0333 30.307 75.7774 29.6604 77.0311 28.7528C78.2848 27.8451 79.3852 26.6285 80.8559 26.1108C81.4332 25.915 82.0649 25.8167 82.6116 25.5591C83.6597 25.0839 84.3702 24.0831 85.0189 23.1128C84.5562 26.0204 82.6539 28.626 80.1074 30.0879C77.6322 31.5029 74.4369 31.7525 71.6933 31.0284C71.4657 30.9631 71.2215 30.8882 71.0511 30.7237C70.5732 30.2494 70.9345 29.3556 71.6179 29.3974C71.9857 29.4114 72.3942 29.3165 72.6997 29.515L72.6902 29.5315Z" fill="#F7EBE3" stroke="black" stroke-width="1.5" stroke-linecap="round" stroke-linejoin="round"/>
<path d="M67.3074 18.597C68.1828 19.4551 69.2797 20.0444 70.2837 20.7563C71.2877 21.4682 72.2485 22.3316 72.6601 23.4952C73.2526 25.2262 72.5261 27.5185 72.3709 29.2808C72.3362 29.7238 72.2659 30.1903 71.973 30.5062C71.6444 30.8456 71.2027 30.9213 70.7449 30.8334C70.1852 30.7306 69.6214 30.4051 69.1023 30.1936C68.5073 29.9604 67.9531 29.6183 67.444 29.2362C66.4164 28.4886 65.5461 27.5452 64.8802 26.4773C63.5556 24.3677 62.9279 21.7786 63.1328 19.3174C63.2242 18.2017 63.514 15.1723 65.037 15.3681C65.9219 15.4822 66.1496 16.275 66.2943 17.02C66.4506 17.8598 66.7351 17.9799 67.3431 18.5735L67.3074 18.597Z" fill="#F7EBE3" stroke="black" stroke-width="1.5" stroke-linecap="round" stroke-linejoin="round"/>
</g>
<defs>
<clipPath id="clip0_146_289">
<rect width="53.8484" height="64.0359" fill="white" transform="translate(0 70.3829) rotate(-57.4359)"/>
</clipPath>
<clipPath id="clip1_146_289">
<rect width="35.6913" height="42.4437" fill="white" transform="translate(63.4961 0.765564) rotate(30)"/>
</clipPath>
</defs>
</svg>
