<svg width="211" height="24" viewBox="0 0 211 24" fill="none" xmlns="http://www.w3.org/2000/svg">
<path d="M82.9534 24C81.7072 24 80.6414 23.6267 79.7559 22.8801C78.8705 22.1335 78.4277 20.9792 78.4277 19.4171C78.4277 18.2685 78.6464 17.229 79.0836 16.2986C79.5209 15.3683 80.297 14.4551 81.412 13.5592C82.527 12.6633 84.0903 11.7215 86.1017 10.7337L86.364 11.6985C85.0522 12.3877 84.0356 13.0826 83.3141 13.7832C82.5926 14.4838 82.0953 15.2075 81.822 15.9541C81.5487 16.7006 81.412 17.5219 81.412 18.4178C81.412 19.6583 81.7072 20.537 82.2975 21.0538C82.8878 21.5707 83.6202 21.8291 84.4947 21.8291C85.3692 21.8291 86.2711 21.6281 87.2003 21.2261C88.1294 20.8241 88.9001 20.3245 89.5123 19.7272L90.0698 20.5887C89.5013 21.2548 88.8728 21.8464 88.1841 22.3632C87.4954 22.8801 86.7193 23.2821 85.8557 23.5693C84.9921 23.8564 84.0247 24 82.9534 24ZM94.5954 23.8966C93.5242 23.8966 92.6223 23.6095 91.8899 23.0352C91.1575 22.4609 90.3759 21.5075 89.5451 20.1752C89.1953 19.6009 88.8127 18.8715 88.3973 17.9871C87.9819 17.1027 87.5665 16.1321 87.1511 15.0754C86.7357 14.0187 86.364 12.9562 86.0361 11.888C85.7081 10.8198 85.4403 9.81479 85.2326 8.87294C85.0249 7.93108 84.921 7.13855 84.921 6.49533C84.921 5.23187 85.1725 4.16942 85.6753 3.30797C86.1782 2.44652 86.8778 1.79182 87.7742 1.34386C88.6706 0.895909 89.6981 0.671932 90.8569 0.671932C92.0156 0.671932 92.9229 0.941853 93.6444 1.4817C94.3659 2.02154 94.7266 2.86576 94.7266 4.01436C94.7266 4.86432 94.5353 5.6626 94.1527 6.40919C93.7701 7.15578 93.0978 7.8794 92.1358 8.58004C91.1739 9.28069 89.8074 10.0101 88.0365 10.7681L87.7086 9.97559C89.2827 9.28643 90.4196 8.60302 91.1192 7.92534C91.8188 7.24767 92.2616 6.58722 92.4474 5.94401C92.6332 5.30079 92.7261 4.69203 92.7261 4.11773C92.7261 3.42857 92.5676 2.83704 92.2506 2.34315C91.9336 1.84925 91.3925 1.6023 90.6273 1.6023C89.6872 1.6023 88.9001 1.93539 88.2661 2.60158C87.6321 3.26777 87.315 4.27854 87.315 5.63388C87.315 6.36899 87.4353 7.24192 87.6758 8.25269C87.9163 9.26346 88.2278 10.3202 88.6104 11.4228C88.993 12.5255 89.4139 13.6052 89.873 14.6619C90.3321 15.7186 90.7803 16.6604 91.2176 17.4874H91.6439L91.6111 18.2455C92.3107 19.2793 92.9994 20.112 93.6772 20.7437C94.3549 21.3754 95.1529 21.6913 96.0712 21.6913C96.7489 21.6913 97.3775 21.5305 97.9569 21.2089C98.5362 20.8873 99.1101 20.3819 99.6786 19.6928L100.171 20.0718C99.4928 21.2893 98.6565 22.2312 97.6617 22.8973C96.667 23.5635 95.6449 23.8966 94.5954 23.8966ZM91.6439 18.8658L91.1192 18.0043C91.9281 16.2584 92.6442 14.8284 93.2673 13.7143C93.8904 12.6001 94.4807 11.7387 95.0382 11.1299C95.5957 10.5212 96.1586 10.0962 96.7271 9.85499C97.2955 9.61378 97.9186 9.49318 98.5964 9.49318C99.6458 9.49318 100.395 9.75162 100.843 10.2685C101.291 10.7854 101.515 11.308 101.515 11.8363C101.515 12.3647 101.357 12.7322 101.04 12.939C100.723 13.1457 100.411 13.2491 100.105 13.2491C99.777 13.2491 99.5255 13.14 99.3506 12.9218C99.1757 12.7035 99.0172 12.4566 98.8751 12.1809C98.733 11.9052 98.5745 11.6583 98.3996 11.4401C98.2247 11.2218 97.9842 11.1127 97.6781 11.1127C97.0222 11.1127 96.4319 11.3482 95.9072 11.8191C95.3825 12.29 94.8851 12.9045 94.4151 13.6626C93.945 14.4207 93.4859 15.2534 93.0377 16.1608C92.5895 17.0682 92.1249 17.9698 91.6439 18.8658Z" fill="black"/>
<path d="M18.8569 17.2635V23.0869H0V0H6.16537V17.2635H18.8569Z" fill="black"/>
<path d="M37.7796 9.25198C37.0144 7.97703 35.9322 7.01221 34.5329 6.3575C33.1337 5.7028 31.4831 5.37545 29.581 5.37545C27.6789 5.37545 26.1212 5.73726 24.711 6.46088C23.3008 7.1845 22.1913 8.21824 21.3823 9.5621C20.5734 10.906 20.1689 12.5197 20.1689 14.4034C20.1689 16.5628 20.5734 18.3087 21.3823 19.6411C22.1913 20.9734 23.3172 21.9383 24.7602 22.5355C26.2031 23.1328 27.8538 23.4314 29.7122 23.4314C31.5705 23.4314 33.1774 23.15 34.5329 22.5872C35.8885 22.0244 36.9379 21.2491 37.6812 20.2613C38.4246 19.2735 38.7962 18.1364 38.7962 16.85V16.4365H32.6309V16.8155C32.6309 17.3209 32.4177 17.6942 31.9914 17.9354C31.565 18.1766 30.7288 18.2972 29.4826 18.2972C28.0834 18.2972 27.1323 18.079 26.6295 17.6425C26.1922 17.2635 25.9462 16.5858 25.8861 15.6095H38.829C38.8728 15.2879 38.9001 15.0065 38.911 14.7653C38.922 14.524 38.9274 14.2541 38.9274 13.9555C38.9274 12.0948 38.5448 10.5269 37.7796 9.25198ZM25.9736 12.336C26.0884 11.7502 26.3015 11.3137 26.6131 11.0266C27.105 10.5671 28.0506 10.3374 29.4498 10.3374C30.849 10.3374 31.7399 10.5442 32.2537 10.9576C32.6199 11.2505 32.855 11.71 32.9588 12.336H25.9736Z" fill="black"/>
<path d="M52.1162 16.9935H52.1443V16.5398C52.1443 16.7006 52.1331 16.85 52.1162 16.9935Z" fill="black"/>
<path d="M57.3087 9.01077C56.6856 7.85068 55.7401 6.95478 54.472 6.32305C53.2039 5.69132 51.6079 5.37545 49.684 5.37545C47.76 5.37545 46.1968 5.68557 44.7976 6.30582C43.3984 6.92606 42.3162 7.80474 41.5509 8.94185C40.7857 10.079 40.4031 11.4171 40.4031 12.9562V13.0251H46.5685V12.8873C46.5685 12.1522 46.7598 11.6583 47.1424 11.4056C47.525 11.1529 48.2192 11.0266 49.2249 11.0266C50.318 11.0266 51.0778 11.1472 51.5041 11.3884C51.9304 11.6296 52.1436 12.1866 52.1436 13.0596V13.4042L45.4207 14.0933C44.1745 14.2312 43.1579 14.5011 42.3708 14.9031C41.5837 15.3051 41.0044 15.8277 40.6327 16.4709C40.261 17.1141 40.0752 17.8492 40.0752 18.6762C40.0752 20.1464 40.5835 21.3065 41.6001 22.1565C42.6168 23.0065 44.0543 23.4314 45.9126 23.4314C47.771 23.4314 49.1156 23.0696 50.1431 22.346C51.1707 21.6224 51.8375 20.6518 52.1436 19.4343H52.4715V23.0869H58.2434V13.1974C58.2434 11.5664 57.9318 10.1709 57.3087 9.01077ZM52.1163 16.9935C52.0616 17.4185 51.9304 17.7631 51.7173 18.0215C51.433 18.3661 50.9739 18.6016 50.3399 18.7279C49.7059 18.8543 48.8423 18.9174 47.7491 18.9174C47.2681 18.9174 46.9019 18.8772 46.6505 18.7968C46.3991 18.7164 46.2734 18.5384 46.2734 18.2627C46.2734 18.079 46.3335 17.9296 46.4537 17.8148C46.574 17.6999 46.7762 17.631 47.0604 17.608L52.1163 16.9935C52.1326 16.85 52.1436 16.7006 52.1436 16.5398V16.9935H52.1163Z" fill="black"/>
<path d="M67.5076 5.0481C67.3491 5.18019 67.278 5.40416 67.2835 5.72003H72.0496V11.0266H67.6552V23.0869H61.4898V11.0266H59.2598V5.72003H61.6319C61.7849 4.94472 62.0856 4.21536 62.5228 3.53195C63.2115 2.46375 64.2445 1.60804 65.6219 0.964824C66.9993 0.321608 68.7046 0 70.7379 0H72.0496V4.61737H69.754C68.5953 4.61737 67.8465 4.76095 67.5076 5.0481Z" fill="black"/>
<path d="M122.618 23.0869H107.894V0H121.864C123.46 0 124.783 0.212491 125.832 0.637473C126.882 1.06246 127.669 1.68844 128.193 2.51543C128.718 3.34243 128.98 4.36468 128.98 5.5822C128.98 7.0524 128.571 8.26992 127.751 9.23474C126.931 10.1996 125.515 10.7279 123.504 10.8198V11.1644C125.712 11.2563 127.346 11.7961 128.407 12.7839C129.467 13.7717 129.997 15.0696 129.997 16.6777C129.997 17.9641 129.746 19.0897 129.243 20.0546C128.74 21.0194 127.947 21.766 126.865 22.2943C125.783 22.8227 124.367 23.0869 122.618 23.0869ZM114.026 5.8234V8.75233H121.208C121.842 8.75233 122.268 8.64322 122.487 8.42498C122.706 8.20675 122.815 7.83345 122.815 7.3051C122.815 6.77674 122.678 6.3977 122.405 6.16798C122.132 5.93826 121.678 5.8234 121.044 5.8234H114.026ZM114.026 14.0589V17.2635H121.831C122.575 17.2635 123.083 17.1543 123.356 16.9361C123.629 16.7179 123.766 16.2871 123.766 15.6439C123.766 15.0007 123.635 14.5757 123.373 14.369C123.11 14.1622 122.596 14.0589 121.831 14.0589H114.026Z" fill="black"/>
<path d="M137.475 23.0869H131.31V0H137.475V23.0869Z" fill="black"/>
<path d="M148.592 23.4314C146.69 23.4314 145.012 23.0696 143.558 22.346C142.104 21.6224 140.973 20.5829 140.164 19.2276C139.355 17.8722 138.95 16.2642 138.95 14.4034C138.95 12.5427 139.355 10.906 140.164 9.5621C140.973 8.21824 142.104 7.1845 143.558 6.46088C145.012 5.73726 146.69 5.37545 148.592 5.37545C150.494 5.37545 152.199 5.73726 153.642 6.46088C155.085 7.1845 156.211 8.21824 157.02 9.5621C157.829 10.906 158.233 12.5197 158.233 14.4034C158.233 16.2872 157.829 17.8722 157.02 19.2276C156.211 20.5829 155.085 21.6224 153.642 22.346C152.199 23.0696 150.516 23.4314 148.592 23.4314ZM148.592 17.7114C149.991 17.7114 150.931 17.476 151.412 17.005C151.893 16.5341 152.134 15.6669 152.134 14.4034C152.134 13.14 151.893 12.2671 151.412 11.7846C150.931 11.3022 149.991 11.061 148.592 11.061C147.193 11.061 146.252 11.3022 145.771 11.7846C145.29 12.2671 145.05 13.14 145.05 14.4034C145.05 15.6669 145.29 16.5341 145.771 17.005C146.252 17.476 147.193 17.7114 148.592 17.7114Z" fill="black"/>
<path d="M168.859 23.4314C166.957 23.4314 165.279 23.0696 163.825 22.346C162.372 21.6224 161.24 20.5829 160.431 19.2276C159.622 17.8722 159.218 16.2642 159.218 14.4034C159.218 12.5427 159.622 10.906 160.431 9.5621C161.24 8.21824 162.372 7.1845 163.825 6.46088C165.279 5.73726 166.957 5.37545 168.859 5.37545C170.761 5.37545 172.467 5.73726 173.91 6.46088C175.353 7.1845 176.479 8.21824 177.288 9.5621C178.096 10.906 178.501 12.5197 178.501 14.4034C178.501 16.2872 178.096 17.8722 177.288 19.2276C176.479 20.5829 175.353 21.6224 173.91 22.346C172.467 23.0696 170.783 23.4314 168.859 23.4314ZM168.859 17.7114C170.259 17.7114 171.199 17.476 171.68 17.005C172.161 16.5341 172.401 15.6669 172.401 14.4034C172.401 13.14 172.161 12.2671 171.68 11.7846C171.199 11.3022 170.259 11.061 168.859 11.061C167.46 11.061 166.52 11.3022 166.039 11.7846C165.558 12.2671 165.318 13.14 165.318 14.4034C165.318 15.6669 165.558 16.5341 166.039 17.005C166.52 17.476 167.46 17.7114 168.859 17.7114Z" fill="black"/>
<path d="M211 11.9569V23.0869H204.835V14.3345C204.835 13.117 204.622 12.2843 204.195 11.8363C203.769 11.3884 202.911 11.1644 201.621 11.1644C200.331 11.1644 199.528 11.3769 199.145 11.8019C198.762 12.2268 198.571 13.0022 198.571 14.1278V23.0869H192.406V14.3345C192.406 13.117 192.193 12.2843 191.766 11.8363C191.34 11.3884 190.482 11.1644 189.192 11.1644C187.902 11.1644 187.098 11.3769 186.716 11.8019C186.333 12.2268 186.142 13.0022 186.142 14.1278V23.0869H179.977V5.72003H185.748V10.9921H186.076C186.208 10.0273 186.481 9.11989 186.896 8.26992C187.312 7.41996 187.94 6.72506 188.782 6.18521C189.624 5.64537 190.733 5.37545 192.111 5.37545C193.488 5.37545 194.723 5.67409 195.62 6.27136C196.516 6.86863 197.177 7.66691 197.604 8.66619C197.915 9.38981 198.112 10.1651 198.194 10.9921H198.538C198.669 10.0273 198.948 9.11989 199.375 8.26992C199.801 7.41996 200.451 6.72506 201.326 6.18521C202.2 5.64537 203.348 5.37545 204.769 5.37545C206.19 5.37545 207.36 5.6626 208.278 6.2369C209.196 6.8112 209.88 7.59225 210.328 8.58004C210.776 9.56784 211 10.6935 211 11.9569Z" fill="black"/>
</svg>
