<svg width="57" height="57" viewBox="0 0 57 57" fill="none" xmlns="http://www.w3.org/2000/svg">
<path d="M35.0119 21.7925L37.4211 30.7405C37.6065 31.4288 38.1441 31.9664 38.8324 32.1517L47.7804 34.561C48.7671 34.8266 48.767 36.2265 47.7804 36.4922L38.8324 38.9014C38.1441 39.0867 37.6065 39.6244 37.4211 40.3127L35.0119 49.2607C34.7462 50.2473 33.3463 50.2473 33.0807 49.2607L30.6715 40.3127C30.4861 39.6244 29.9485 39.0867 29.2602 38.9014L20.3122 36.4922C19.3255 36.2265 19.3255 34.8266 20.3122 34.561L29.2602 32.1517C29.9485 31.9664 30.4861 31.4288 30.6715 30.7405L33.0807 21.7925C33.3463 20.8058 34.7462 20.8058 35.0119 21.7925Z" fill="white" stroke="black"/>
<path d="M41.5336 5.09798L43.7479 10.6491C43.946 11.1457 44.3934 11.4993 44.9223 11.5773L50.8347 12.4495C51.3402 12.5241 51.4216 13.2193 50.947 13.4086L45.3959 15.6229C44.8993 15.821 44.5457 16.2684 44.4677 16.7972L43.5954 22.7097C43.5209 23.2151 42.8257 23.2965 42.6364 22.822L40.4221 17.2709C40.224 16.7743 39.7766 16.4207 39.2477 16.3427L33.3353 15.4704C32.8298 15.3959 32.7484 14.7007 33.223 14.5114L38.7741 12.2971C39.2707 12.099 39.6243 11.6516 39.7023 11.1227L40.5746 5.21025C40.6491 4.70482 41.3443 4.62342 41.5336 5.09798Z" fill="white" stroke="black"/>
<path d="M20.0017 11.1956L19.3385 17.1351C19.2791 17.6664 19.5071 18.1891 19.9367 18.5072L24.7403 22.063C25.151 22.367 24.8951 23.0185 24.3874 22.9618L18.4478 22.2986C17.9165 22.2392 17.3938 22.4672 17.0757 22.8968L13.5199 27.7004C13.2159 28.1111 12.5644 27.8552 12.6211 27.3475L13.2844 21.4079C13.3437 20.8766 13.1158 20.3539 12.6861 20.0358L7.88249 16.48C7.47185 16.176 7.72771 15.5245 8.23546 15.5812L14.175 16.2445C14.7063 16.3038 15.229 16.0759 15.5471 15.6462L19.1029 10.8426C19.4069 10.4319 20.0584 10.6878 20.0017 11.1956Z" fill="white" stroke="black"/>
<path d="M12.9213 38.322L15.6824 42.1433C15.9329 42.4899 16.3489 42.6771 16.7745 42.6345L21.4655 42.1653C21.6689 42.145 21.7682 42.4067 21.6026 42.5264L17.7813 45.2875C17.4346 45.538 17.2475 45.9541 17.2901 46.3796L17.7592 51.0706C17.7796 51.274 17.5178 51.3733 17.3981 51.2077L14.637 47.3864C14.3865 47.0398 13.9705 46.8526 13.5449 46.8952L8.85389 47.3644C8.65055 47.3847 8.55121 47.1229 8.71686 47.0033L12.5381 44.2421C12.8848 43.9917 13.0719 43.5756 13.0294 43.15L12.5602 38.459C12.5398 38.2557 12.8016 38.1563 12.9213 38.322Z" fill="white" stroke="black"/>
</svg>
